<svg xmlns="http://www.w3.org/2000/svg" viewBox="0 0 200 63.914831" height="63.915" width="200"><path d="M192.637 56.845v-2.678h1.473c1.113 0 1.668.446 1.668 1.331 0 .433-.142.763-.43.995-.284.237-.677.352-1.17.352zm3.155 4.695c.481 1.088.816 1.823 1.014 2.21H200c-.49-1.037-1.008-2.15-1.536-3.324-.532-1.171-1.093-1.893-1.692-2.157 1.355-.624 2.022-1.585 2.022-2.877 0-.931-.353-1.728-1.063-2.385-.714-.66-1.636-.988-2.775-.988h-5.236v11.73h2.917v-4.755h.842c.39 0 .747.15 1.09.459.34.303.746 1 1.223 2.087m-12.411-1.06c-.674.657-1.569.99-2.672.99-1.11 0-2.012-.333-2.693-.99-.676-.657-1.014-1.523-1.014-2.594 0-1.08.338-1.948 1.014-2.6.68-.657 1.582-.987 2.693-.987 1.103 0 1.998.33 2.672.988.678.65 1.02 1.52 1.02 2.6 0 1.07-.342 1.936-1.02 2.592m4.03-2.59c0-1.605-.618-3.012-1.85-4.217-1.24-1.213-2.854-1.814-4.852-1.814-2.003 0-3.628.6-4.867 1.806-1.238 1.203-1.856 2.614-1.856 4.225 0 1.64.621 3.053 1.873 4.239 1.242 1.192 2.864 1.787 4.85 1.787 1.961 0 3.574-.595 4.826-1.793 1.248-1.2 1.876-2.604 1.876-4.233m-19.249 2.693c-.66.68-1.608 1.018-2.84 1.018h-1.913v-7.433h1.872c1.243 0 2.2.337 2.865 1 .66.661.994 1.57.994 2.722 0 1.114-.323 2.012-.978 2.693m-2.493-8.563h-5.177v11.73h4.852c2.18 0 3.866-.517 5.038-1.558 1.182-1.034 1.774-2.465 1.774-4.285 0-1.734-.582-3.148-1.74-4.244-1.17-1.094-2.755-1.643-4.747-1.643m-7.704 2.148V52.02h-8.543v11.73h8.659V61.6h-5.736v-2.82h5.365v-2.155h-5.365v-2.457zM138.34 61.6v-7.433h1.876c1.252 0 2.207.337 2.867 1 .664.661.998 1.57.998 2.722 0 1.114-.328 2.012-.981 2.693-.661.68-1.609 1.018-2.841 1.018zm6.987.59c1.182-1.033 1.77-2.464 1.77-4.284 0-1.734-.585-3.148-1.747-4.244-1.16-1.094-2.746-1.643-4.745-1.643h-5.176v11.73h4.853c2.18 0 3.861-.517 5.045-1.558m-12.673 1.558V52.02h-2.91v7.17l-6.316-7.17h-2.662v11.73h2.913v-7.518l6.52 7.518zm-14.329-2.15h-5.745v-2.82h5.365v-2.155h-5.365v-2.457h5.63V52.02h-8.543v11.73h8.658zm-17.56-7.432h1.48c1.112 0 1.667.446 1.667 1.331 0 .433-.142.763-.43.995-.294.237-.68.352-1.175.352h-1.543zm0 4.827h.848c.383 0 .75.15 1.083.459.344.303.753 1 1.229 2.087a57.505 57.505 0 0 0 1.008 2.21h3.197a245.332 245.332 0 0 1-1.539-3.324c-.529-1.171-1.093-1.893-1.688-2.157 1.344-.624 2.026-1.585 2.026-2.877 0-.931-.36-1.728-1.065-2.385-.713-.66-1.635-.988-2.778-.988h-5.235v11.73h2.913zm-11.338-4.827h1.03c.784 0 1.328.105 1.659.3.327.202.485.556.485 1.061 0 .908-.608 1.368-1.813 1.368h-1.36zm0 4.876h2.322c1.196 0 2.14-.347 2.834-1.044a3.42 3.42 0 0 0 1.035-2.501c0-.945-.354-1.758-1.051-2.444-.7-.688-1.645-1.035-2.824-1.035h-5.236v11.73h2.92zM83.62 63.75V52.02h-2.524L77.31 56.36l-3.785-4.34H71v11.73h2.91v-7.324l3.186 3.674h.429l3.184-3.674v7.323zm-15.18-9.582V52.02h-8.532v11.73h8.652V61.6h-5.745v-2.82h5.368v-2.155h-5.368v-2.457zm119.866-13.48c.677-.664 1.575-.986 2.686-.986 1.107 0 2.001.322 2.675.986.678.654 1.018 1.522 1.018 2.599 0 1.073-.34 1.939-1.018 2.6-.674.653-1.568.981-2.675.981-1.11 0-2.01-.328-2.686-.982-.68-.66-1.02-1.526-1.02-2.6 0-1.076.34-1.944 1.02-2.598m2.686 8.627c1.965 0 3.574-.594 4.83-1.794 1.251-1.199 1.872-2.602 1.872-4.234 0-1.602-.621-3.007-1.85-4.216-1.242-1.211-2.854-1.814-4.852-1.814-2.002 0-3.627.603-4.863 1.807-1.242 1.205-1.856 2.617-1.856 4.223 0 1.648.618 3.06 1.87 4.245 1.245 1.189 2.863 1.783 4.849 1.783m-16.976-11.892v11.727h8.952v-2.147h-6.032v-9.58zm-7.839 0h-2.92v11.727h8.945v-2.147h-6.025zm-9.256 8.463c-.674.654-1.57.982-2.676.982-1.11 0-2.008-.328-2.685-.982-.684-.66-1.024-1.526-1.024-2.6 0-1.076.34-1.944 1.024-2.598.677-.664 1.575-.986 2.685-.986 1.107 0 2.002.322 2.676.986.68.654 1.011 1.522 1.011 2.599 0 1.073-.33 1.939-1.011 2.6m2.18-6.816c-1.242-1.211-2.854-1.814-4.856-1.814-1.998 0-3.627.603-4.863 1.807-1.239 1.205-1.856 2.617-1.856 4.223 0 1.648.624 3.06 1.87 4.245 1.245 1.189 2.864 1.783 4.85 1.783 1.958 0 3.573-.594 4.822-1.794 1.262-1.199 1.886-2.602 1.886-4.234 0-1.602-.624-3.007-1.853-4.216m-16.995 2.825c-.288.23-.678.35-1.173.35h-1.54v-2.671h1.474c1.11 0 1.668.44 1.668 1.322 0 .43-.145.768-.43.999m3.442-1.1c0-.933-.353-1.732-1.063-2.382-.71-.665-1.636-.991-2.772-.991h-5.239v11.727h2.92v-4.753h.84c.39 0 .749.149 1.083.456.34.31.753 1.003 1.239 2.083.475 1.091.805 1.831 1.004 2.214h3.191a233.02 233.02 0 0 1-1.533-3.326c-.532-1.173-1.097-1.89-1.688-2.157 1.348-.618 2.018-1.58 2.018-2.87m-15.258 1.099c-.29.23-.683.35-1.173.35h-1.539v-2.671h1.474c1.112 0 1.668.44 1.668 1.322 0 .43-.142.768-.43.999m1.424 1.77c1.348-.617 2.019-1.578 2.019-2.87 0-.933-.357-1.732-1.068-2.382-.706-.665-1.637-.991-2.77-.991h-5.237v11.727h2.92v-4.753h.836c.396 0 .753.149 1.093.456.344.31.75 1.003 1.226 2.083.482 1.091.816 1.831 1.008 2.214h3.197a182.963 182.963 0 0 1-1.54-3.326c-.531-1.173-1.092-1.89-1.684-2.157m-17.184 1.116l1.724-4.556 1.906 4.556zm3.383-7.36h-3.396l-4.737 11.727h3.102l.875-2.312h5.266l.961 2.312h3.141zm-13.68 9.742a5.225 5.225 0 0 1-1.925-.357c-.605-.245-1.3-.621-2.085-1.143v2.52c1.371.751 2.782 1.13 4.238 1.13 1.355 0 2.444-.323 3.274-.967.825-.648 1.242-1.513 1.242-2.6 0-.76-.188-1.394-.567-1.894a4.008 4.008 0 0 0-1.353-1.158c-.518-.278-1.218-.576-2.087-.896-.868-.318-1.413-.579-1.638-.78-.225-.207-.334-.416-.334-.644 0-.294.149-.522.463-.699.31-.183.727-.268 1.255-.268.924 0 2.166.348 3.72 1.04V38.16c-1.395-.602-2.72-.905-3.975-.905-1.365 0-2.45.31-3.26.933-.812.615-1.219 1.43-1.219 2.44 0 .779.181 1.42.554 1.916a4 4 0 0 0 1.332 1.154c.51.271 1.212.56 2.085.88.882.315 1.43.586 1.66.805.233.22.348.448.348.696 0 .724-.578 1.084-1.727 1.084m-6.191-.162H92.31v-2.818h5.35v-2.15h-5.35v-2.46h5.622v-2.152H89.39v11.727h8.652zm-14.98-1.025c-.661.681-1.61 1.025-2.845 1.025H78.31v-7.428h1.867c1.249 0 2.207.326 2.867.994.664.659.997 1.568.997 2.718 0 1.113-.33 2.015-.98 2.691m3.993-2.671c0-1.735-.585-3.15-1.744-4.247-1.163-1.092-2.749-1.637-4.747-1.637H75.39v11.727h4.85c2.184 0 3.866-.519 5.044-1.556 1.177-1.04 1.771-2.468 1.771-4.287m-24.137 5.843h1.727v-6.203l4.335-5.524h-2.052l-3.168 4.036-3.148-4.036h-2.025l4.33 5.524zm107.97-22.117l6.52 7.515h2.455v-11.73h-2.913v7.172l-6.31-7.172h-2.666v11.73h2.914zm-14.615-.946c.68-.661 1.57-.99 2.687-.99 1.11 0 1.997.329 2.675.99.674.652 1.014 1.52 1.014 2.598 0 1.074-.34 1.938-1.014 2.595-.678.657-1.566.988-2.675.988-1.117 0-2.006-.33-2.687-.988-.683-.657-1.021-1.521-1.021-2.595 0-1.077.338-1.946 1.021-2.598m-2.166 6.848c1.252 1.187 2.866 1.78 4.853 1.78 1.961 0 3.57-.6 4.829-1.793 1.249-1.195 1.88-2.605 1.88-4.229 0-1.604-.625-3.015-1.857-4.22-1.243-1.215-2.855-1.815-4.852-1.815-2.003 0-3.625.6-4.867 1.805-1.238 1.208-1.856 2.614-1.856 4.23 0 1.638.627 3.047 1.87 4.242m7.617-13.749h-2.847l-1.276 2.508h1.276zm-11.869 3.632h-2.914v11.73h2.914zm-10.132 11.896a9.666 9.666 0 0 0 4.616-1.166v-2.564c-1.11.534-1.95.887-2.504 1.044-.566.165-1.15.24-1.751.24-1.22 0-2.227-.337-3-1.013-.786-.682-1.175-1.542-1.175-2.585 0-1.037.396-1.894 1.192-2.561.79-.674 1.816-1.012 3.062-1.012 1.268 0 2.62.407 4.04 1.208v-2.618c-1.16-.69-2.574-1.03-4.251-1.03-2.095 0-3.803.59-5.1 1.766-1.302 1.177-1.953 2.61-1.953 4.302 0 1.686.614 3.108 1.847 4.26 1.238 1.154 2.897 1.73 4.977 1.73m-14.036-9.092l1.907 4.56h-3.624zm-6.474 8.925h3.098l.88-2.31h5.258l.965 2.31h3.141l-5.203-11.73h-3.402zm-4.274.166l5.444-11.896h-3.155l-2.95 6.686-3.102-6.686h-3.184l5.675 11.896zm-17.227-6.029c0-1.077.34-1.946 1.02-2.598.68-.661 1.58-.99 2.685-.99 1.111 0 2.003.329 2.677.99.68.652 1.014 1.52 1.014 2.598 0 1.074-.334 1.938-1.014 2.595-.674.657-1.566.988-2.677.988-1.106 0-2.004-.33-2.685-.988-.68-.657-1.02-1.521-1.02-2.595m8.535 4.237c1.253-1.195 1.876-2.605 1.876-4.229 0-1.604-.62-3.015-1.853-4.22-1.241-1.215-2.854-1.815-4.853-1.815-2 0-3.62.6-4.862 1.805-1.235 1.208-1.853 2.614-1.853 4.23 0 1.638.618 3.047 1.87 4.242 1.245 1.187 2.864 1.78 4.845 1.78 1.964 0 3.575-.6 4.83-1.793m-22.822-5.889l6.524 7.515h2.45v-11.73h-2.916v7.172l-6.306-7.172h-2.673v11.73h2.92zM77.7 34.547v-11.73h-2.92v7.172l-6.303-7.172h-2.673v11.73h2.914v-7.515l6.53 7.515zm-17.702 0h2.92v-11.73h-2.92zm93.884-16.097h-5.137v-3.645h4.814v-1.503h-4.814V9.717h4.972V8.219h-6.643v11.733h6.808zM135.67 9.717h2.104c.806 0 1.396.03 1.76.095.367.06.75.178 1.16.37.406.193.77.439 1.08.737.853.797 1.278 1.825 1.278 3.081 0 1.291-.416 2.347-1.245 3.19a4.25 4.25 0 0 1-.852.653c-.314.17-.697.318-1.17.436-.465.111-1.12.171-1.962.171h-2.153zm4.162 10.148c.37-.064.772-.184 1.219-.353a5.685 5.685 0 0 0 1.998-1.272 5.594 5.594 0 0 0 1.291-1.89 5.71 5.71 0 0 0 .46-2.255c0-1.1-.28-2.113-.83-3.044-.55-.928-1.284-1.634-2.215-2.119-.935-.476-2.204-.713-3.796-.713h-3.97v11.733h3.726c1.04 0 1.746-.033 2.117-.087m-22.608-8.957c.866-.838 1.969-1.258 3.316-1.258 1.275 0 2.352.423 3.227 1.274.883.845 1.319 1.886 1.319 3.133 0 1.27-.436 2.337-1.319 3.189-.875.856-1.965 1.281-3.284 1.281-1.297 0-2.384-.412-3.256-1.252-.869-.84-1.295-1.89-1.295-3.152 0-1.305.426-2.375 1.292-3.215m3.15 9.174c1.854 0 3.393-.57 4.606-1.698 1.22-1.138 1.833-2.568 1.833-4.293 0-1.732-.608-3.167-1.813-4.316-1.206-1.145-2.72-1.722-4.53-1.722-1.816 0-3.316.577-4.5 1.722-1.194 1.149-1.785 2.597-1.785 4.348 0 1.706.587 3.123 1.763 4.261 1.18 1.128 2.66 1.698 4.427 1.698M106.918 9.65h.503c.822 0 1.406.067 1.77.187.354.123.624.332.825.635a1.8 1.8 0 0 1 .288 1c0 .37-.086.706-.261 1.003a1.639 1.639 0 0 1-.743.658c-.314.146-.891.217-1.744.217h-.638zm0 5.198h.436c.548 0 .935.061 1.166.19.235.125.496.33.787.612.286.287.607.673.95 1.156l.559.911.529.854.324.465c.053.065.083.114.102.14l.51.776h2.004l-.628-.84a22.364 22.364 0 0 1-.978-1.507c-.65-1.053-1.15-1.794-1.512-2.22a5.765 5.765 0 0 0-1.104-1.01c.641-.245 1.13-.616 1.47-1.117.346-.494.518-1.084.518-1.77 0-1.004-.353-1.797-1.05-2.392-.69-.58-1.635-.877-2.824-.877h-2.94v11.733h1.681zm-9.279 5.104h1.698V9.702h4.083v-1.5h-9.805v1.5h4.024zm-14.99-9.033l7.822 9.033h1.443V8.219h-1.589v9.108l-7.901-9.108h-1.362v11.733h1.587zm-3.614 7.531h-5.128v-3.645h4.807v-1.503h-4.807V9.717h4.966V8.219h-6.65v11.733h6.812zm-16.636.841c.911.526 2.025.791 3.336.791 1.613 0 3.04-.337 4.272-1.01v-1.84c-1.355.865-2.746 1.295-4.17 1.295-1.36 0-2.474-.404-3.35-1.24-.875-.83-1.317-1.889-1.317-3.172 0-1.275.45-2.34 1.335-3.191.888-.85 2.001-1.274 3.349-1.274 1.311 0 2.649.391 4.02 1.172V9.016c-1.502-.639-2.873-.963-4.103-.963-1.79 0-3.293.584-4.512 1.75-1.216 1.166-1.823 2.6-1.823 4.312 0 1.073.264 2.075.793 2.998a5.845 5.845 0 0 0 2.17 2.178M7.444 37.161S.616 58.389 17.298 62.18c16.682 4.548 26.54-6.828 28.056-10.624 2.276-3.782 4.545-14.396-8.341-18.19 22.743 18.19-29.569 39.434-29.569 3.794M45.354 0l-25.02 2.278 3.032 3.794C1.376 19.717-5.449 35.645 4.408 55.352.616 34.127 8.96 15.164 45.354 0m-15.92 25.782l3.79 5.308c7.584 0 12.13 3.036 15.158 9.857-2.269-11.373-9.093-16.68-18.947-15.165" fill="#044e7b" fill-rule="evenodd"/></svg>