<svg xmlns="http://www.w3.org/2000/svg" viewBox="0 0 199.99999 111.17083" height="111.171" width="200"><path d="M83.862 39.941a5.733 5.733 0 1 0-11.467 0 5.733 5.733 0 0 0 11.467 0" fill="#fff"/><path d="M44.557 57.63V22.362L28.034 37.406 11.51 22.362V57.63H0V0h3.947l24.087 21.869L52.039 0h4.028v57.63zM181.997 26.226c2.63-3.454 7.315-4.933 12.002-4.933 2.056 0 4.11.329 6 .986l-4.027 9.126c-6-2.63-12.084.987-13.153 6.658V57.63h-10.276V22.197h7.973zM89.874 22.197l-.822 3.37c-3.29-2.795-7.564-4.44-12.168-4.44-10.44 0-18.825 8.305-18.825 18.745 0 10.358 8.384 18.744 18.825 18.744.045 0 .089-.002.133-.003V49.33c-4.7-.551-8.348-4.541-8.348-9.389a9.46 9.46 0 1 1 18.92 0c0 4.823-3.614 8.796-8.279 9.378v9.141a18.696 18.696 0 0 0 9.742-4.283v3.453h8.714V22.197zM144.864 35.5c.441-.95.992-1.84 1.656-2.615 1.727-1.81 3.946-2.796 6.331-2.796 2.301 0 4.603.987 6.247 2.796a9.48 9.48 0 0 1 1.71 2.615zm26.402 4.29c0-10.44-8.469-18.825-18.827-18.825-10.358 0-18.826 8.384-18.826 18.825 0 10.358 8.468 18.827 18.826 18.827 5.674 0 10.852-2.549 14.223-6.578l-7.728-5.179c-1.645 1.644-3.864 2.63-6.083 2.63-2.385 0-4.604-.986-6.33-2.877-.905-.987-1.562-2.137-2.056-3.453h26.471c.248-1.15.33-2.219.33-3.37" fill="#c20e1a"/><path d="M123.375 36.995l14.385-14.798h-14.057L113.18 33.624V7.117a26.38 26.38 0 0 1-11.508 3.45V57.63h11.508V45.709l2.385-2.466 11.838 14.387h13.482z" fill="#c20e1a"/><g><path d="M159.623 67.87l-8.236 8.237v35.064h40.44l8.173-8.172V67.87zM83.862 92.377a5.733 5.733 0 1 0-11.467 0 5.733 5.733 0 0 0 11.467 0M129.726 92.377a5.733 5.733 0 1 0-11.466 0 5.733 5.733 0 0 0 11.466 0" fill="#c20e1a"/><path d="M41.21 98.559h16.895v11.425h-28.4V63.916H41.21zM89.874 74.633l-.822 3.37a18.685 18.685 0 0 0-9.742-4.283V83c4.353.543 7.79 4.037 8.23 8.422h10.226V74.633zM78.13 101.836a9.46 9.46 0 0 1-9.46-9.459c0-4.848 3.649-8.837 8.348-9.389v-9.421c-.044 0-.088-.003-.133-.003-10.44 0-18.825 8.304-18.825 18.744 0 10.358 8.384 18.744 18.825 18.744 4.604 0 8.879-1.645 12.168-4.439v3.453h8.714V93.714H87.483c-.652 4.59-4.586 8.122-9.354 8.122M125.348 73.4a18.863 18.863 0 0 0-13.153 5.343V60.368h-10.523v31.054h12.91c.479-4.776 4.51-8.504 9.41-8.504a9.46 9.46 0 0 1 0 18.919c-4.768 0-8.702-3.533-9.353-8.122h-12.967v16.35h10.523v-4.356a18.866 18.866 0 0 0 13.153 5.343c10.358 0 18.743-8.386 18.743-18.826 0-10.358-8.385-18.825-18.743-18.825M160.305 86.971v2.156h1.078c.962 0 1.444-.359 1.444-1.078 0-.403-.129-.684-.386-.841-.258-.158-.697-.237-1.318-.237zm-2.316-1.703h4.146c.94 0 1.688.273 2.242.819.554.545.832 1.19.832 1.936a2.71 2.71 0 0 1-.822 1.983c-.548.55-1.294.825-2.24.825h-1.842v3.733h-2.316zM172.866 85.268h2.315v5.277c0 1.357-.401 2.386-1.204 3.087-.803.701-1.95 1.052-3.44 1.052-1.473 0-2.617-.356-3.43-1.065-.814-.71-1.221-1.73-1.221-3.061v-5.29h2.322v5.343c0 .648.212 1.167.635 1.557.424.39.98.586 1.667.586.714 0 1.285-.2 1.714-.599.428-.4.642-.967.642-1.703zM184.995 91.73v2.029a7.689 7.689 0 0 1-3.654.924c-1.65 0-2.964-.455-3.942-1.367-.978-.912-1.467-2.035-1.467-3.37 0-1.336.515-2.469 1.547-3.4 1.031-.932 2.378-1.398 4.042-1.398 1.326 0 2.449.273 3.367.819v2.07c-1.127-.636-2.194-.953-3.2-.953-.99 0-1.798.266-2.426.795-.628.53-.941 1.206-.941 2.027 0 .825.31 1.506.928 2.043.619.536 1.411.805 2.378.805.48 0 .941-.063 1.385-.19.443-.126 1.104-.405 1.983-.835M188.494 86.971v2.156h1.078c.963 0 1.444-.359 1.444-1.078 0-.403-.129-.684-.386-.841-.257-.158-.697-.237-1.318-.237zm-2.316-1.703h4.146c.94 0 1.688.273 2.242.819.555.545.832 1.19.832 1.936a2.71 2.71 0 0 1-.822 1.983c-.548.55-1.294.825-2.239.825h-1.843v3.733h-2.316z" fill="#fff"/></g></svg>