<svg xmlns="http://www.w3.org/2000/svg" viewBox="0 0 200 66.155256" height="66.155" width="200"><defs><clipPath id="a"><path d="M0 595.28h841.89V0H0z"/></clipPath></defs><g clip-path="url(#a)" transform="matrix(.40632 0 0 -.40632 -93.769 191.515)"><path d="M412.148 389.876c-.255-41.875-.892-75.817-1.424-75.814-.534.004-.759 33.952-.505 75.825.253 41.874.891 75.818 1.424 75.815.531-.004.758-33.953.505-75.826M495.734 359.347c0-2.701-.463-5.331-1.377-7.908-.938-2.571-2.443-4.966-4.487-7.181-2.088-2.242-4.866-4.032-8.387-5.423-3.52-1.377-7.651-2.08-12.417-2.08h-14.39V309.46h-21.948v72.785h36.338c4.766 0 8.897-.707 12.417-2.11 3.52-1.396 6.299-3.221 8.387-5.456 2.044-2.237 3.549-4.67 4.487-7.295a24.306 24.306 0 0 0 1.377-8.036m-22.361-.103c0 3.463-1.026 5.83-3.073 7.112-2.05 1.285-5.71 1.916-10.998 1.916h-4.626V350.73h4.727c3.638 0 6.444.228 8.396.688 1.965.457 3.376 1.288 4.265 2.516.866 1.224 1.309 3.003 1.309 5.31M578.043 342.064c0-6.226-1.167-11.548-3.486-15.935-2.329-4.394-5.417-7.864-9.24-10.431a40.2 40.2 0 0 0-12.4-5.502 53.938 53.938 0 0 0-13.255-1.671c-6.17 0-12.166 1.038-17.975 3.148-5.846 2.1-10.709 5.67-14.633 10.713-3.92 5.03-5.886 11.589-5.886 19.678v40.183h21.903v-34.51c0-4.79.69-8.756 2.071-11.892 1.393-3.132 3.308-5.423 5.773-6.872 2.467-1.453 5.385-2.183 8.747-2.183 3.222 0 6.073.722 8.558 2.152 2.49 1.434 4.424 3.713 5.805 6.832 1.387 3.122 2.074 7.064 2.074 11.869v34.604h21.944zM653.464 314.915a52.278 52.278 0 0 0-9.238-3.778 59.692 59.692 0 0 0-9.53-2.023c-3.207-.399-6.52-.59-9.947-.59-6.339 0-12.03.86-17.039 2.613-5.039 1.756-9.384 4.34-13.077 7.755-3.699 3.41-6.465 7.394-8.294 11.963-1.839 4.572-2.759 9.588-2.759 15.057 0 6.263 1.082 11.75 3.245 16.462 2.18 4.707 5.213 8.61 9.118 11.726 3.898 3.115 8.35 5.412 13.345 6.912 4.983 1.476 10.241 2.22 15.775 2.22 8.26 0 17.627-1.835 28.086-5.509v-19.327c-3.604 2.25-7.168 4.111-10.68 5.596-3.524 1.483-7.66 2.232-12.418 2.232-4.238 0-8.192-.838-11.875-2.528-3.666-1.672-6.637-4.078-8.866-7.185-2.238-3.119-3.367-6.76-3.367-10.92 0-3.683.971-7.045 2.948-10.11 1.962-3.058 4.68-5.5 8.161-7.312 3.483-1.794 7.411-2.69 11.793-2.69 3.534 0 6.875.434 10.031 1.283 3.144.86 5.805 1.811 7.952 2.87a70.146 70.146 0 0 1 6.636 3.722zM722.995 359.347a23.15 23.15 0 0 0-1.392-7.908c-.926-2.571-2.424-4.966-4.49-7.181-2.07-2.242-4.854-4.032-8.38-5.423-3.511-1.377-7.634-2.08-12.413-2.08h-14.39V309.46h-21.95v72.785h36.34c4.779 0 8.902-.707 12.413-2.11 3.526-1.396 6.31-3.221 8.38-5.456 2.066-2.237 3.564-4.67 4.49-7.295a23.969 23.969 0 0 0 1.392-8.036m-22.363-.103c0 3.463-1.033 5.83-3.074 7.112-2.05 1.285-5.721 1.916-11.01 1.916h-4.617V350.73h4.722c3.652 0 6.443.228 8.415.688 1.95.457 3.363 1.288 4.238 2.516.887 1.224 1.326 3.003 1.326 5.31" fill="#33365c"/><path d="M442.66 390.854h-8.797l8.797 53.326h-.21l-14.87-9.508-4.399 5.422 22.2 13.687h7.644zM473.982 427.146a67.087 67.087 0 0 1-.76-5.744 43.32 43.32 0 0 1-.114-6.388c.115-2.146.409-4.243.874-6.287.467-2.046 1.246-3.863 2.333-5.448 1.086-1.582 2.528-2.855 4.318-3.813 1.788-.959 4.042-1.434 6.766-1.434 2.722 0 5.13.475 7.235 1.434a19.847 19.847 0 0 1 5.599 3.813 24.482 24.482 0 0 1 4.199 5.448 40.52 40.52 0 0 1 2.916 6.287 50.702 50.702 0 0 1 1.867 6.388c.47 2.112.85 4.025 1.168 5.744.307 1.716.564 3.63.756 5.743a49.58 49.58 0 0 1 .177 6.388 33.458 33.458 0 0 1-.821 6.288c-.462 2.047-1.241 3.862-2.326 5.447-1.094 1.583-2.53 2.852-4.318 3.811-1.795.957-4.05 1.437-6.771 1.437-4.121 0-7.543-1.039-10.267-3.12a26.216 26.216 0 0 1-6.708-7.575 39.353 39.353 0 0 1-4.022-9.506c-.933-3.369-1.634-6.337-2.101-8.913m-9.802 0c.7 3.961 1.79 8.087 3.267 12.378 1.478 4.291 3.558 8.202 6.242 11.735 2.683 3.531 6.027 6.435 10.034 8.712 4.005 2.282 8.847 3.418 14.528 3.418 5.674 0 10.147-1.136 13.414-3.418 3.268-2.277 5.642-5.18 7.116-8.712 1.477-3.533 2.256-7.444 2.337-11.735.073-4.29-.24-8.417-.936-12.378-.624-3.96-1.674-8.087-3.15-12.377-1.48-4.295-3.56-8.205-6.242-11.736-2.686-3.534-6.027-6.438-10.03-8.717-4.01-2.276-8.851-3.417-14.527-3.417-3.812 0-7.06.532-9.741 1.587-2.686 1.054-4.903 2.474-6.652 4.258-1.748 1.782-3.111 3.878-4.085 6.29a32.846 32.846 0 0 0-2.04 7.625 44.295 44.295 0 0 0-.41 8.268c.116 2.835.41 5.577.875 8.22M585.364 431.07a171.751 171.751 0 0 0-1.292-6.364 55.797 55.797 0 0 0-2.072-7.08 45.111 45.111 0 0 0-3.228-6.971 27.173 27.173 0 0 0-4.656-6.04 21.977 21.977 0 0 0-6.206-4.22c-2.326-1.064-5.002-1.591-8.017-1.591-3.016 0-5.518.527-7.497 1.59-1.986 1.06-3.58 2.47-4.788 4.222-1.208 1.759-2.066 3.774-2.584 6.039a41.395 41.395 0 0 0-.97 6.97 48.714 48.714 0 0 0 .128 7.08c.217 2.342.494 4.46.842 6.365.518 2.853 1.293 6.144 2.326 9.88a43.483 43.483 0 0 0 4.464 10.533 28.805 28.805 0 0 0 7.436 8.394c3.012 2.307 6.804 3.458 11.377 3.458 3.014 0 5.51-.532 7.497-1.59a14.092 14.092 0 0 0 2.919-2.086h12.736c-1.644 3.078-3.965 5.682-6.99 7.79-3.621 2.527-8.581 3.79-14.867 3.79-6.301 0-11.662-1.263-16.102-3.79-4.438-2.522-8.147-5.741-11.12-9.655a46.224 46.224 0 0 1-6.916-13.006c-1.638-4.755-2.846-9.33-3.621-13.718a68.336 68.336 0 0 1-.97-9.11 49.27 49.27 0 0 1 .453-9.162 36.466 36.466 0 0 1 2.262-8.452c1.08-2.672 2.584-4.994 4.529-6.968 1.937-1.977 4.392-3.553 7.365-4.72 2.98-1.17 6.573-1.758 10.8-1.758 6.292 0 11.656 1.265 16.095 3.788 4.44 2.524 8.146 5.742 11.12 9.658 2.976 3.916 5.279 8.249 6.919 13.006 1.637 4.755 2.799 9.329 3.493 13.718.104.596.179 1.206.272 1.81h-10.84a59.624 59.624 0 0 0-.297-1.81" fill="#7f2e35"/><path d="M590.955 444.688a25.092 25.092 0 0 1-1.39-.14 7.163 7.163 0 0 1-1.584-.383 3.59 3.59 0 0 1-1.263-.775c-.343-.327-.494-.767-.459-1.311.038-.59.313-1.01.842-1.26a3.088 3.088 0 0 1 1.595-.321c.482.03.94.127 1.38.286.435.16.823.372 1.155.634.336.263.592.589.78.973.177.385.253.827.222 1.33l-.067 1.047zm1.538-4.896l-.067-.002a4.631 4.631 0 0 0-2.057-1.977 7.47 7.47 0 0 0-2.827-.745 7.4 7.4 0 0 0-2.164.17 5.404 5.404 0 0 0-1.876.81c-.552.383-1 .868-1.347 1.459-.344.593-.545 1.289-.597 2.096-.062.917.058 1.705.35 2.36a4.644 4.644 0 0 0 1.273 1.662 6.874 6.874 0 0 0 1.918 1.094c.725.276 1.484.498 2.275.659.788.16 1.581.279 2.375.353a94.08 94.08 0 0 0 2.207.18c-.054.87-.414 1.544-1.07 2.016-.657.47-1.408.68-2.262.622a4.817 4.817 0 0 1-2.175-.652 6.076 6.076 0 0 1-1.69-1.507l-2.794 2.509a8.945 8.945 0 0 0 3.08 2.126c1.194.508 2.446.806 3.754.889 1.444.095 2.638-.006 3.585-.305.955-.298 1.731-.78 2.334-1.442.603-.66 1.046-1.492 1.33-2.492.285-1 .472-2.165.56-3.497l.53-8.085-4.516-.297zM600.229 457.034a8.11 8.11 0 0 0 .353 1.667c.184.56.429 1.063.738 1.512.309.447.697.819 1.16 1.112.467.292 1 .459 1.61.5a5.109 5.109 0 0 0 1.488-.1c.446-.104.915-.235 1.406-.398l.925-.271c.302-.09.608-.123.943-.1.367.02.653.156.859.4.206.245.374.533.5.872l2.554.169a10.307 10.307 0 0 0-.343-1.801 4.642 4.642 0 0 0-.706-1.476 3.725 3.725 0 0 0-1.18-1.043c-.477-.277-1.051-.433-1.731-.478a4.283 4.283 0 0 0-1.37.122c-.435.114-.842.246-1.225.399-.383.148-.75.28-1.095.402-.35.12-.688.168-1.012.147a1.035 1.035 0 0 1-.856-.516 3.803 3.803 0 0 1-.428-.948zm-1.058-2.831l4.71.308.143-2.16.067.007c.129.314.33.636.595.958.263.323.583.62.96.886.378.265.81.493 1.304.678a5.595 5.595 0 0 0 1.62.336c1.242.083 2.26-.043 3.05-.376a4.37 4.37 0 0 0 1.887-1.468c.47-.651.812-1.425 1.025-2.333a18.52 18.52 0 0 0 .426-2.963l.576-8.771-4.91-.323-.51 7.788c-.031.457-.081.93-.146 1.42a4.572 4.572 0 0 1-.381 1.34 2.363 2.363 0 0 1-.822.965c-.352.239-.847.339-1.482.297-.633-.042-1.14-.19-1.516-.444a2.361 2.361 0 0 1-.841-.977 3.659 3.659 0 0 1-.321-1.32c-.035-.484-.035-.99 0-1.511l.522-7.921-4.912-.323zM622.8 447.77c.078-1.2.488-2.15 1.224-2.847.736-.697 1.727-1.003 2.97-.92 1.238.08 2.182.514 2.82 1.304.64.786.918 1.778.84 2.98-.08 1.2-.488 2.147-1.22 2.844-.739.696-1.727 1.004-2.97.922-1.246-.08-2.185-.516-2.825-1.304-.639-.787-.917-1.78-.839-2.979m-4.91-.325c-.082 1.267.071 2.427.46 3.483a7.937 7.937 0 0 0 1.71 2.758 8.326 8.326 0 0 0 2.705 1.871 10.08 10.08 0 0 0 3.413.818c1.223.08 2.39-.04 3.494-.363a8.355 8.355 0 0 0 2.923-1.502 7.878 7.878 0 0 0 2.055-2.509c.526-.997.83-2.126.912-3.392.084-1.264-.069-2.426-.459-3.482a7.883 7.883 0 0 0-1.71-2.757c-.745-.785-1.65-1.407-2.699-1.872a10.077 10.077 0 0 0-3.42-.816 10.06 10.06 0 0 0-3.488.361c-1.106.323-2.083.82-2.925 1.502a7.95 7.95 0 0 0-2.057 2.508c-.527.998-.83 2.13-.915 3.392M647.229 452.664c-.778.847-1.756 1.235-2.935 1.154a2.682 2.682 0 0 1-1.194-.371c-.38-.225-.55-.576-.518-1.055.026-.393.245-.671.665-.828.409-.161.934-.288 1.568-.39.63-.1 1.306-.213 2.025-.327a7.585 7.585 0 0 0 2.048-.637 4.493 4.493 0 0 0 1.632-1.321c.442-.575.696-1.365.763-2.366.067-1.026-.101-1.888-.504-2.582a5.144 5.144 0 0 0-1.613-1.717 7.409 7.409 0 0 0-2.3-1.005 13.812 13.812 0 0 0-2.57-.417 12.51 12.51 0 0 0-3.401.253c-1.156.242-2.152.74-2.993 1.498l2.76 3.5c.499-.536 1.033-.933 1.61-1.194.574-.257 1.232-.363 1.976-.312a4.564 4.564 0 0 1 1.52.345c.45.194.658.509.629.945-.028.415-.253.713-.667.895-.42.18-.94.322-1.571.42-.632.103-1.31.212-2.027.327a8.502 8.502 0 0 0-2.045.605 4.225 4.225 0 0 0-1.635 1.29c-.442.574-.691 1.364-.761 2.365-.06.94.075 1.762.414 2.463.34.7.803 1.29 1.399 1.767a6.388 6.388 0 0 0 2.078 1.105 9.754 9.754 0 0 0 2.435.476 11.552 11.552 0 0 0 3.205-.252 5.872 5.872 0 0 0 2.822-1.456z" fill="#33365c"/><path d="M359.387 377.41l.033-.016-.033.015M342.926 367.528a5.599 5.599 0 0 1 1.23-.534c-.41.181-.818.361-1.23.534" fill="#fff"/><path d="M317.588 394.892c.905 15.69 12.394 18.82 15.38 19.331 8.222 1.406 16.602-.624 16.602-.624s-8.933-5.483-3.623-19.008c5.125-13.046 12.895-16.923 13.44-17.182-.682.321-14.772 6.88-21.2 5.211-6.206-1.61-11.455-10.055-11.455-10.055s-10.05 6.64-9.144 22.327m14.885 25.433h.514v-5.28h-.514zm1.301-.022l6.085-1.738-6.085-2.234s.54 1.254.502 1.986c-.038.731-.502 1.986-.502 1.986m22.43-48.37c-.78-.433-1.558-.878-2.339-1.326-2.393-1.375-4.81-2.783-7.326-4.008-.245-.119-.488-.243-.735-.358 1.571-.742 3.12-1.53 4.655-2.33.44.02.881.034 1.331.034 3.563-.003 7.482-.804 11.922-2.774a59.797 59.797 0 0 0-.737-1.14c-3.544 1.491-6.753 2.227-9.715 2.41-.497.031-.988.05-1.47.051a31.27 31.27 0 0 1-2.76-.13c-15.336-1.39-24.712-14.022-39.106-14.07-5.16-.02-10.973 1.581-17.816 5.923-.292.186-.589.385-.885.58-.166.11-.33.213-.497.326-11.273 7.612-19.51 8.687-26.546 7.144-.254.424-.5.851-.744 1.281 7.2 1.784 15.618.911 27.29-6.97.68-.459 1.346-.883 2.006-1.289 4.52 1.55 9.105 3.901 13.646 7.245 3.561 2.621 6.93 4.517 10.138 5.83a56.387 56.387 0 0 0-2.483 1.585c-26.017 17.567-35.872.333-52.094-3.588a58.382 58.382 0 0 0-1.093 2.35c16.885 3.113 26.59 21.376 53.187 3.001a54.25 54.25 0 0 1 4.268-2.67c5.135 1.79 9.856 2.08 14.297 1.464-.719 1.231-1.378 2.606-1.309 3.428.148 1.755 7.185 6.931 7.185 6.931s1.641-10.178 2.414-12.49c.005-.016 0-.027.003-.04.84-.316 1.67-.65 2.493-1.004-.153.066-.305.134-.459.2-.326.198-.592.42-.774.663-1.387 1.842-3.018 12.671-3.018 12.671s5.452-5.135 10.33-5.99c4.61-.809 8.075-.648 8.075-.648s-.11-.25-.329-.659c4.33 2.267 8.703 4.051 13.584 3.972a58.471 58.471 0 0 1 1.854 14.643c0 32.234-26.129 58.364-58.364 58.364a58.121 58.121 0 0 1-23.719-5.039l2.087-15.136 10.02 6.915-6.82-9.883 15.831-2.367-15.739-2.5 6.728-9.748-9.903 6.834-2.386-31.325-2.309 31.323-9.9-6.832 6.74 9.765-15.75 2.483 15.848 2.342-6.838 9.908 10.081-6.957 1.937 15.01c-20.21-9.174-34.273-29.516-34.273-53.157 0-32.234 26.13-58.363 58.365-58.363 26.86 0 49.466 18.148 56.262 42.848-5.158-.064-9.755-2.187-14.342-4.734" fill="#33365c"/><path d="M320.145 368.054a33.145 33.145 0 0 1-2.042-.604c-3.681-1.216-7.572-3.19-11.724-6.144-4.227-3.006-8.492-5.146-12.707-6.587 6.17-3.625 11.49-4.988 16.253-4.973 13.684.044 22.832 11.462 36.878 13.784a83.21 83.21 0 0 1-3.43 1.66c-.548.25-1.1.492-1.656.725a46.925 46.925 0 0 1-4.492 1.627 37.045 37.045 0 0 1-3.26.836c-4.306.889-8.872.965-13.82-.324M344.432 366.912a7.462 7.462 0 0 0-.277.082c.077-.035.156-.067.233-.101l.044.019" fill="#33365c"/><path d="M359.94 328.533l-.057.111-5.801 11.078 2.09 1.096.06-.111 5.8-11.077zm-5.948-3.942l-.053.113-5.358 11.302 2.132 1.011.053-.113 5.359-11.302zm-9.326-4.894l-.065.056-10.318 8.632 2.336 1.294.066-.058 7.14-6.236-1.41 9.506 2.249 1.245 1.77-13.458zm-13.234-3.995l-.046.05-3.92 4.2-2.373-5.314-2.872-.484 3.41 7.28-5.198 5.227 2.944.498.045-.049 3.512-3.683 2.108 4.684 2.895.485-3.172-6.615 5.658-5.774zm-14.141 9.917l-1.35-12.432-2.347.252.014.125.883 8.149-4.295-7.902-1.568.168-.024.08-2.475 8.569-.897-8.279-2.35.255.015.124 1.349 12.434 3.007-.326.023-.08 2.599-8.733 4.42 8.047 3.009-.327zm-18.382-1.018l-.12.352a3.006 3.006 0 0 1-.785 1.215 3.45 3.45 0 0 1-1.255.768c-.587.203-1.155.278-1.684.216a3.822 3.822 0 0 1-1.506-.477 4.367 4.367 0 0 1-1.243-1.07 5.123 5.123 0 0 1-.85-1.568 4.827 4.827 0 0 1-.272-1.652 4.091 4.091 0 0 1 .316-1.541 3.76 3.76 0 0 1 .902-1.28c.398-.371.904-.664 1.505-.871.583-.201 1.139-.26 1.652-.172.52.09 1.014.299 1.463.622l.313.224 1.38-2.035-.307-.211a5.762 5.762 0 0 0-.664-.373 4.984 4.984 0 0 0-1.15-.394 6.572 6.572 0 0 0-1.448-.148l-.093.001c-.577.003-1.218.123-1.908.357-.94.324-1.737.803-2.373 1.422a6.552 6.552 0 0 0-1.448 2.079 6.57 6.57 0 0 0-.544 2.396 6.6 6.6 0 0 0 .346 2.376 7.408 7.408 0 0 0 1.322 2.377 6.487 6.487 0 0 0 1.965 1.585 6.163 6.163 0 0 0 2.427.652c.85.054 1.75-.077 2.678-.395a6.525 6.525 0 0 0 2.159-1.246 4.697 4.697 0 0 0 1.412-2.085l.12-.357zm-17.005-3.422l3.597 7.502-6.68-6.02-1.422.679.52 8.985-3.601-7.507-2.13 1.024.054.112 5.41 11.275 2.727-1.309-.003-.083-.455-9.097 6.846 6.114 2.728-1.306-.054-.113-5.41-11.277zm92.705 66.596c-2.242-31.371-28.384-56.129-60.326-56.129s-58.083 24.758-60.326 56.129h-23.182c2.274-44.151 38.79-79.251 83.508-79.251 44.717 0 81.234 35.1 83.508 79.251zM246.531 394.3l-3.656.167.26 5.706-1.728.079-.259-5.706-3.384.153.28 6.13-1.729.08-.362-7.961 12.123-.553.1-.004.376 8.267-1.728.079zM240.08 412.352l-1.698.33-1.827-9.408 1.699-.33.738 3.805 10.314-2.004.349 1.798-10.313 2.004zM251.301 418.012l-9.606 4.001-.093.04-.704-1.693 11.204-4.666.092-.039 2.828 6.792-1.597.665zM257.899 432.318a5.062 5.062 0 0 1-1.481 1.32l-6.535 3.944-.086.05-.947-1.566 6.403-3.864c.31-.188.612-.43.897-.717.282-.286.508-.616.67-.983.161-.365.235-.765.221-1.187-.014-.42-.164-.872-.447-1.341-.283-.468-.613-.812-.979-1.021a2.673 2.673 0 0 0-1.154-.357 3.283 3.283 0 0 0-1.18.135 4.621 4.621 0 0 0-1.053.46l-6.403 3.864-.947-1.57 6.622-3.994a5.042 5.042 0 0 1 1.858-.695c.245-.037.488-.055.728-.055a4.444 4.444 0 0 1 2.724.915 5 5 0 0 1 1.265 1.424c.343.567.57 1.167.671 1.783.1.61.077 1.219-.068 1.807a4.638 4.638 0 0 1-.78 1.648M258.426 447.9l-.048.186-1.486-1.736 1.47-5.266-5.399.618-.053.007-1.52-1.775 7.092-.659 1.988-7.549 1.476 1.721-1.679 5.936 6.06-.758.053-.007 1.554 1.813-7.812.783zM264.412 453.377l7.68-9.524 1.427 1.149-7.681 9.525zM278.112 462.647l-1.565-.951 5.046-8.302-10.61 4.919-1.96-1.192 6.304-10.37.052-.085 1.566.95-5.05 8.305 10.623-4.863.05-.022 1.9 1.156-6.304 10.37zM294.88 469.005l-9.03-2.903-.096-.03.531-1.649 3.69 1.187 3.185-9.906.031-.095 1.745.561-3.219 10.002 3.691 1.186zM301.21 459.548l-.605 3.608 5.633.946-.286 1.706-5.634-.946-.561 3.34 6.053 1.017-.287 1.706-7.86-1.32 2.027-12.067 8.162 1.37-.287 1.707zM318.227 461.569l-6.42 9.71-.03.045-2.295.015-.075-12.136-.001-.1 1.833-.012.059 9.72 6.518-9.761 2.228-.014.077 12.136v.099l-1.832.012zM330.639 462.654l.099-.018.309 1.702-5.62 1.023.606 3.332 6.038-1.099.31 1.703-7.842 1.425-2.171-11.94-.018-.098 8.143-1.48.309 1.701-6.34 1.154.655 3.6zM339.493 457.945c-.133-.385-.321-.669-.56-.843a1.983 1.983 0 0 0-.791-.352 2.355 2.355 0 0 0-.858-.013 4.81 4.81 0 0 0-.788.193l-2.17.751 1.3 3.763 2.189-.757c.724-.25 1.248-.615 1.556-1.083.303-.462.344-1.02.122-1.659m.1 7.416c.59-.205.97-.512 1.133-.915.164-.407.173-.828.025-1.252-.101-.293-.24-.525-.415-.689a1.495 1.495 0 0 0-.6-.348 1.827 1.827 0 0 0-.74-.06c-.27.03-.547.093-.827.19l-2.01.696 1.103 3.184zm3.047-2.623c.172.494.23.964.176 1.4a2.645 2.645 0 0 1-.433 1.175c-.23.344-.546.656-.938.927a5.512 5.512 0 0 1-1.335.664l-4.047 1.401-3.968-11.469-.033-.095 3.997-1.383a6.081 6.081 0 0 1 1.658-.336c.088-.004.174-.007.26-.007.444 0 .865.061 1.257.182.47.147.887.387 1.238.713.356.33.629.764.81 1.29.137.397.2.794.186 1.18a3.254 3.254 0 0 1-.226 1.09 2.895 2.895 0 0 1-.59.912 2.662 2.662 0 0 1-.6.471 3.367 3.367 0 0 1 1.444.422c.528.298.913.79 1.144 1.463M349.152 457.188a5.622 5.622 0 0 0-.856.366l-1.807.951 1.714 3.252 1.807-.95c.27-.144.536-.312.785-.5.24-.18.436-.387.582-.61.142-.218.22-.467.23-.742.01-.275-.076-.589-.256-.933-.182-.344-.392-.593-.625-.739a1.43 1.43 0 0 0-.741-.23 2.336 2.336 0 0 0-.833.135m2.187-1.588a3.225 3.225 0 0 1 1.723 1.521c.179.341.314.723.4 1.135.09.421.083.854-.025 1.288-.11.434-.343.87-.694 1.297-.35.427-.877.827-1.568 1.191l-3.834 2.02-5.656-10.738-.047-.088 1.62-.854 2.473 4.692 1.469-.773.233-6.062.002-.058 2.016-1.06-.466 6.473a3.35 3.35 0 0 1 1.15-.202c.427.003.832.077 1.204.218M358.724 457.436l-1.52 1.021-6.77-10.07-.057-.084 1.52-1.022 6.771 10.072zM364.608 449.78l-.015-.117 2.005.087.001.095c.007.734-.169 1.379-.523 1.917a6.608 6.608 0 0 1-1.296 1.439c-.567.472-1.13.794-1.677.956-.549.164-1.069.227-1.54.182a3.233 3.233 0 0 1-1.29-.386 3.187 3.187 0 0 1-.922-.738c-.51-.611-.805-1.205-.876-1.765a3.631 3.631 0 0 1 .145-1.587c.163-.496.4-.977.701-1.43.29-.433.554-.861.788-1.272.224-.393.371-.777.44-1.141.064-.35-.04-.682-.32-1.017a1.577 1.577 0 0 0-.68-.495 2.07 2.07 0 0 0-.8-.113 2.448 2.448 0 0 0-.808.193 2.8 2.8 0 0 0-.696.42 3.298 3.298 0 0 0-.864 1.118 2.583 2.583 0 0 0-.232 1.42l.011.112-1.976-.031-.006-.091a3.718 3.718 0 0 1 .472-2.077 6.076 6.076 0 0 1 1.448-1.747 5.305 5.305 0 0 1 1.444-.866 4.095 4.095 0 0 1 1.492-.294h.032c.504.005 1.002.12 1.48.34.48.222.913.564 1.29 1.016.475.57.736 1.127.776 1.652a3.46 3.46 0 0 1-.218 1.503 6.26 6.26 0 0 1-.743 1.373c-.309.433-.577.856-.798 1.257-.22.4-.356.795-.405 1.177-.049.366.081.738.388 1.106.11.13.26.254.44.366.182.11.396.179.638.204.248.027.518-.01.808-.105.294-.097.614-.288.95-.57.353-.293.611-.63.767-1 .157-.368.213-.736.17-1.091M374.616 442.852l-1.144 1.431-9.557-7.64 4.595-5.747 1.35 1.08-3.45 4.315zM384.232 428.116l.087.05-.918 1.586-6.474-3.742a4.594 4.594 0 0 0-1.063-.441 3.28 3.28 0 0 0-1.182-.113 2.674 2.674 0 0 0-1.146.38c-.363.215-.685.564-.96 1.039-.274.472-.415.926-.421 1.348-.006.426.076.824.244 1.184.168.36.399.687.687.969.291.283.598.518.913.7l6.387 3.692.087.05-.916 1.587-6.695-3.871a5.043 5.043 0 0 1-1.508-1.292 4.67 4.67 0 0 1-.811-1.632 4.458 4.458 0 0 1-.101-1.806 5.059 5.059 0 0 1 .636-1.795 5.034 5.034 0 0 1 1.239-1.45 4.477 4.477 0 0 1 2.797-.966c.21 0 .424.014.638.043.624.08 1.253.303 1.871.66zM379.844 411.199l.095-.027.557 1.842-.1.028a3.806 3.806 0 0 0-1.534.813c-.431.379-.767.89-.998 1.519-.236.645-.335 1.27-.294 1.86.042.589.196 1.139.46 1.635.263.497.625.939 1.075 1.316a5.18 5.18 0 0 0 1.556.892 5.47 5.47 0 0 0 1.873.35h.029c.606 0 1.18-.104 1.707-.31a4.182 4.182 0 0 0 1.434-.941c.415-.414.743-.94.973-1.564a3.766 3.766 0 0 0 .215-1.596 3.279 3.279 0 0 0-.497-1.52l-.053-.083 1.61-1.026.055.084c.436.688.668 1.462.69 2.3a6.32 6.32 0 0 1-.38 2.39c-.323.88-.776 1.642-1.346 2.262a5.867 5.867 0 0 1-1.97 1.424 6.208 6.208 0 0 1-2.394.508h-.124a7.23 7.23 0 0 1-2.49-.463 6.38 6.38 0 0 1-1.997-1.194 6.348 6.348 0 0 1-1.474-1.875 6.405 6.405 0 0 1-.678-2.365c-.077-.854.052-1.745.384-2.648.24-.655.542-1.212.894-1.653a6.536 6.536 0 0 1 1.056-1.074c.353-.274.685-.482.987-.617.297-.134.526-.224.679-.267M380.363 407.804l3.592.697 1.087-5.609 1.698.33-1.086 5.607 3.325.645 1.168-6.025 1.698.329-1.516 7.823-12.013-2.327 1.575-8.124 1.698.329zM392.172 401.343l-.005.1-1.727-.081.179-3.872-10.394-.481-.1-.005.085-1.831 10.494.488.18-3.873 1.729.08z" fill="#7f2e35"/></g></svg>